<svg viewBox="0 0 640 400" data-background-color="#ffffff" preserveAspectRatio="xMidYMid meet" height="400" width="640" xmlns="http://www.w3.org/2000/svg" xmlns:xlink="http://www.w3.org/1999/xlink"><rect width="640" height="400" x="0" y="0" opacity="1" fill="#ffffff" data-fill-palette-color="background" id="background"></rect><g id="tight-bounds" transform="matrix(1,0,0,1,197.78432,76.4)"><svg viewBox="0 0 244.43135999999998 247.2" height="247.2" width="244.43135999999998"><g><svg></svg></g><g><svg viewBox="0 0 244.43135999999998 247.2" height="247.2" width="244.43135999999998"><g transform="matrix(1,0,0,1,0,74.35534370893293)"><svg viewBox="0 0 244.43135999999998 98.4893125821341" height="98.4893125821341" width="244.43135999999998"><g><svg viewBox="0 0 244.43135999999998 98.4893125821341" height="98.4893125821341" width="244.43135999999998"><g><svg viewBox="0 0 244.43135999999998 98.4893125821341" height="98.4893125821341" width="244.43135999999998"><g><svg viewBox="0 0 244.43135999999998 98.4893125821341" height="98.4893125821341" width="244.43135999999998"><g><svg viewBox="0 0 244.43135999999998 98.4893125821341" height="98.4893125821341" width="244.43135999999998"><g><svg viewBox="0 0 244.43135999999998 98.4893125821341" height="98.4893125821341" width="244.43135999999998"><g transform="matrix(1,0,0,1,0,0)"><svg width="244.43135999999998" viewBox="3.5 -37.099998474121094 92.06999969482422 37.099998474121094" height="98.4893125821341" data-palette-color="#000000"><path d="M3.5-36.15L3.5-36.15Q3.5-37.1 4.3-37.1L4.3-37.1 29.1-37.1Q29.85-37.1 29.85-36.25L29.85-36.25 29.8-31.75Q29.8-30.7 28.8-30.7L28.8-30.7 13.2-30.7Q12.25-30.7 12.25-29.9L12.25-29.9 12.25-22.15Q12.25-21.35 13-21.35L13-21.35 23.85-21.35Q24.65-21.35 24.65-20.55L24.65-20.55 24.65-15.8Q24.65-15.1 23.9-15.1L23.9-15.1 12.95-15.1Q12.25-15.1 12.25-14.45L12.25-14.45 12.25-1.15Q12.25 0 10.95 0L10.95 0 4.6 0Q3.95 0 3.73-0.25 3.5-0.5 3.5-1.05L3.5-1.05 3.5-36.15ZM35.05-36.15L35.05-36.15Q35.05-37.1 35.85-37.1L35.85-37.1 60.65-37.1Q61.4-37.1 61.4-36.25L61.4-36.25 61.35-31.75Q61.35-30.7 60.35-30.7L60.35-30.7 44.75-30.7Q43.8-30.7 43.8-29.9L43.8-29.9 43.8-22.15Q43.8-21.35 44.55-21.35L44.55-21.35 55.4-21.35Q56.2-21.35 56.2-20.55L56.2-20.55 56.2-15.8Q56.2-15.1 55.45-15.1L55.45-15.1 44.5-15.1Q43.8-15.1 43.8-14.45L43.8-14.45 43.8-1.15Q43.8 0 42.5 0L42.5 0 36.15 0Q35.5 0 35.27-0.25 35.05-0.5 35.05-1.05L35.05-1.05 35.05-36.15ZM61.04 0L61.04 0Q60.59 0 60.39-0.4 60.19-0.8 60.39-1.45L60.39-1.45 72.84-36.1Q73.05-36.65 73.3-36.88 73.55-37.1 74.14-37.1L74.14-37.1 81.64-37.1Q82.75-37.1 83.14-36L83.14-36 95.5-1.35Q95.64-0.95 95.5-0.48 95.34 0 94.89 0L94.89 0 87.55 0Q86.8 0 86.59-0.7L86.59-0.7 84-8Q83.94-8.25 83.82-8.4 83.69-8.55 83.34-8.55L83.34-8.55 71.14-8.55Q70.64-8.55 70.5-8.05L70.5-8.05 67.84-0.65Q67.74-0.35 67.52-0.18 67.3 0 66.8 0L66.8 0 61.04 0ZM73.09-15.2L81.3-15.2Q82-15.2 81.75-16.05L81.75-16.05 77.55-27.75Q77.39-28.05 77.22-28.05 77.05-28.05 76.89-27.7L76.89-27.7 72.64-16.05Q72.3-15.2 73.09-15.2L73.09-15.2Z" opacity="1" transform="matrix(1,0,0,1,0,0)" fill="#000000" class="undefined-text-0" data-fill-palette-color="primary" id="text-0"></path></svg></g></svg></g></svg></g></svg></g><g></g></svg></g></svg></g></svg></g><path d="M0 68.355L0 1 244.431 1 244.431 68.355 235.549 68.355 235.549 9.882 8.882 9.882 8.882 68.355 0 68.355M0 178.845L0 246.2 244.431 246.2 244.431 178.845 235.549 178.845 235.549 237.318 8.882 237.318 8.882 178.845 0 178.845" fill="#000000" stroke="transparent" data-fill-palette-color="primary"></path></svg></g></svg><rect width="244.43135999999998" height="247.2" fill="none" stroke="none" visibility="hidden"></rect></g><defs></defs></svg>